<?xml version="1.0" encoding="utf-8"?>
<!-- Generator: Adobe Illustrator 15.1.0, SVG Export Plug-In . SVG Version: 6.00 Build 0)  -->
<!DOCTYPE svg PUBLIC "-//W3C//DTD SVG 1.1//EN" "http://www.w3.org/Graphics/SVG/1.1/DTD/svg11.dtd">
<svg version="1.1" id="Capa_1" xmlns="http://www.w3.org/2000/svg" xmlns:xlink="http://www.w3.org/1999/xlink" x="0px" y="0px"
	 width="113.387px" height="113.386px" viewBox="0 0 113.387 113.386" enable-background="new 0 0 113.387 113.386"
	 xml:space="preserve">
<g>
	<path fill-rule="evenodd" clip-rule="evenodd" fill="#1E3969" d="M-130.307,374.823c0-11.18,0-22.362,0-33.541
		c2.508,0,5.012,0,7.52,0c0.1-2.207-0.197-4.813,0.154-6.77c9.371,0,18.75,0,28.123,0c0,2.256,0,4.513,0,6.77
		c6.719,0,13.441,0,20.156,0c0-4.412,0-8.825,0-13.236c-0.752,0-1.504,0-2.254,0c-2.055-4.214-4.264-8.273-6.318-12.484
		c0.82-1.003,1.477-1.922,2.408-3.009c0.582-0.683,1.84-2.592,2.705-2.859c0.9-0.275,2.414,0,3.607,0c3.881,0,7.422,0,11.133,0
		c0-1.352,0-2.707,0-4.06c-1.488-0.105-3.33,0.426-3.311-0.902c0.02-1.191,2.189-0.903,4.063-0.903c1.816,0,4.023-0.342,4.063,1.053
		c-0.334,1.019-1.988,0.719-3.309,0.753c0,1.353,0,2.708,0,4.06c1.102,0,2.205,0,3.309,0c1.73,1.932,3.516,3.808,4.967,6.018
		c-2.25,4.019-4.09,8.448-6.471,12.335c-0.703,0-1.404,0-2.107,0c0,4.411,0,8.824,0,13.236c2.16,0.101,4.715-0.2,6.619,0.149
		c-0.1,11.081,0.199,22.563-0.148,33.392c-17.803,0-35.6,0-53.396,0c0-5.564,0-11.129,0-16.693c-3.965,0-7.922,0-11.885,0
		c-0.1,5.514,0.199,11.429-0.15,16.693C-123.988,374.823-127.15,374.823-130.307,374.823z M-74.502,324.736c0.953,0,1.904,0,2.857,0
		c0-2.006,0-4.011,0-6.016c-1.904,0-3.811,0-5.717,0C-76.453,320.771-75.484,322.76-74.502,324.736z M-70.293,324.736
		c1.457,0,2.912,0,4.363,0c0-2.006,0-4.011,0-6.016c-1.451,0-2.906,0-4.363,0C-70.293,320.726-70.293,322.73-70.293,324.736z
		 M-64.424,324.736c0.9,0,1.803,0,2.707,0c0.936-2.021,2.078-3.836,2.855-6.016c-1.854,0-3.709,0-5.563,0
		C-64.424,320.726-64.424,322.73-64.424,324.736z M-123.838,346.246c-0.352,1.254-0.049,3.159-0.15,4.662c5.313,0,10.627,0,15.945,0
		c0-1.555,0-3.109,0-4.662C-113.309,346.246-118.574,346.246-123.838,346.246z M-104.734,346.246
		c-0.352,1.254-0.053,3.159-0.152,4.662c5.365,0,10.729,0,16.094,0c0-1.555,0-3.109,0-4.662
		C-94.107,346.246-99.422,346.246-104.734,346.246z M-85.482,346.246c-0.354,1.254-0.053,3.159-0.15,4.662
		c5.316,0,10.629,0,15.941,0c0-1.555,0-3.109,0-4.662C-74.953,346.246-80.217,346.246-85.482,346.246z"/>
</g>
<g>
	<path fill-rule="evenodd" clip-rule="evenodd" fill="#1E3969" d="M528.912,371.843c-16.845,0-33.691,0-50.54,0
		c-2.808-0.613-4.995-2.338-5.969-4.696c-1.191-2.889-0.633-8.128-0.633-13.084c0-11.595,0-23.106,0-34.282
		c0-2.294-0.26-4.769,0.126-6.73c0.567-2.891,3.001-5.27,5.334-5.968c1.613-0.482,4.014-0.254,6.347-0.254
		c13.692,0,26.497,0,40.002,0c2.355,0,4.837-0.236,6.478,0.254c2.188,0.656,4.067,2.595,4.822,4.445
		c1.123,2.739,0.638,7.876,0.638,12.698c0,9.446,0,18.067,0,26.921c0,4.504,0.416,9.058,0,13.463
		C535.118,368.823,532.719,370.692,528.912,371.843z M476.848,314.444c-0.529,1.597-0.253,3.938-0.253,6.098
		c0,13.078,0,24.996,0,38.222c0,2.239-0.218,4.889,0.382,6.096c1.229,2.478,3.771,2.16,7.62,2.16c12.911,0,24.758,0,37.459,0
		c2.245,0,4.783,0.262,6.095-0.255c2.664-1.049,2.54-3.707,2.54-7.747c0-11.114,0-22.189,0-32.888c0-3.34,0.572-10.647-0.634-12.573
		c-0.236-0.376-0.646-0.803-1.145-1.141c-1.909-1.305-7.488-0.763-11.428-0.763c-8.568,0-16.42,0-24.509,0
		c-3.931,0-8.729-0.335-12.442,0.126C478.902,311.982,477.509,312.463,476.848,314.444z"/>
	<path fill-rule="evenodd" clip-rule="evenodd" fill="#1E3969" d="M480.022,314.702c13.711-0.233,27.7-0.13,41.907-0.13
		c1.781,0,4.839-0.24,5.456,0.382c0.656,0.655,0.382,3.927,0.382,5.841c0,12.924,0,24.281,0,37.336c0,1.732,0.313,5.019-0.382,5.713
		c-0.749,0.75-4.087,0.383-5.712,0.383c-12.688,0-23.564,0-36.318,0c-1.675,0-4.912,0.285-5.586-0.383
		c-0.672-0.667-0.381-4.073-0.381-5.97c0-13.758-0.271-27.039,0-40.76C479.407,316.251,479.257,315.296,480.022,314.702z
		 M514.437,341.366c2.349-2.409,3.282-6.261,2.919-9.776c-0.374-3.638-2.65-6.509-5.713-8.002
		c-5.03-2.443-13.768-1.739-19.809-0.888c0,11.768,0,23.533,0,35.302c2.623,0,5.247,0,7.871,0c0.085-4.233-0.168-8.806,0.131-12.826
		C506.604,345.634,511.436,344.445,514.437,341.366z"/>
	<path fill-rule="evenodd" clip-rule="evenodd" fill="#1E3969" d="M499.705,338.954c0-3.557,0-7.109,0-10.666
		c3.389-0.526,6.903-0.456,8.636,1.523c1.178,1.347,1.585,3.978,0.636,6.096C507.748,338.65,503.859,339.716,499.705,338.954z"/>
</g>
<g>
	<g>
		<defs>
			<rect id="SVGID_1_" x="-275.646" y="30.509" width="73.707" height="52.367"/>
		</defs>
		<clipPath id="SVGID_2_">
			<use xlink:href="#SVGID_1_"  overflow="visible"/>
		</clipPath>
		<path clip-path="url(#SVGID_2_)" fill="#1E3969" d="M-203.641,82.199c-0.92,0-1.669-0.744-1.669-1.665V49.584l-33.502-15.566
			l-33.499,15.566v30.951c0,0.921-0.748,1.665-1.668,1.665c-0.921,0-1.667-0.744-1.667-1.665V48.521
			c0-0.651,0.373-1.241,0.965-1.513l35.167-16.344c0.449-0.206,0.963-0.206,1.405,0l35.171,16.342
			c0.588,0.273,0.964,0.864,0.964,1.515v32.014C-201.974,81.456-202.718,82.199-203.641,82.199 M-246.814,77.033
			c-0.92,0-1.667,0.746-1.667,1.667v2.501c0,0.921,0.747,1.669,1.667,1.669c0.921,0,1.667-0.748,1.667-1.669V78.7
			C-245.147,77.779-245.894,77.033-246.814,77.033 M-231.058,77.033c-0.921,0-1.667,0.746-1.667,1.667v2.501
			c0,0.921,0.746,1.669,1.667,1.669c0.923,0,1.668-0.748,1.668-1.669V78.7C-229.39,77.779-230.135,77.033-231.058,77.033
			 M-206.591,64.374c-0.06,0.872-0.793,1.547-1.663,1.547h-9.728v0.484c1.72,0.674,2.941,2.339,2.941,4.298
			c0,2.542-2.067,4.613-4.611,4.613c-2.543,0-4.611-2.071-4.611-4.613c0-1.959,1.224-3.63,2.943-4.298v-0.484h-6.281
			c-0.576,6.572-4.52,11.845-9.54,12.873v2.407c0,0.921-0.748,1.669-1.671,1.669c-0.919,0-1.666-0.748-1.666-1.669v-2.358
			c-5.141-0.901-9.203-6.241-9.794-12.922h-7.417v0.484c1.719,0.674,2.945,2.345,2.945,4.298c0,2.542-2.07,4.613-4.615,4.613
			c-2.544,0-4.612-2.07-4.612-4.613c0-1.954,1.225-3.625,2.946-4.298v-0.484h-8.585c-0.873,0-1.601-0.675-1.662-1.547
			c-0.064-0.872,0.559-1.647,1.422-1.771l20.046-2.896l0.077-0.196c0.189-0.711,0.41-1.406,0.679-2.066h-4.908
			c-0.926,0-1.67-0.745-1.67-1.667c0-0.919,0.744-1.668,1.67-1.668h6.762c1.719-2.331,4.013-3.935,6.594-4.425v-6.282
			c0-0.919,0.747-1.666,1.666-1.666c0.921,0,1.665,0.746,1.665,1.666v6.282c2.579,0.491,4.879,2.095,6.598,4.425h6.769
			c0.921,0,1.667,0.749,1.667,1.668c0,0.921-0.746,1.667-1.667,1.667h-4.92c0.114,0.28,0.215,0.567,0.311,0.854l0.555,1.416
			l19.944,2.888C-207.152,62.726-206.527,63.501-206.591,64.374 M-258.078,70.703c0-0.707-0.574-1.28-1.28-1.28
			c-0.702,0-1.275,0.574-1.275,1.28c0,0.702,0.573,1.275,1.275,1.275C-258.652,71.979-258.078,71.405-258.078,70.703
			 M-218.371,70.703c0-0.707-0.576-1.28-1.28-1.28s-1.279,0.574-1.279,1.28c0,0.702,0.575,1.275,1.279,1.275
			S-218.371,71.405-218.371,70.703 M-237.15,58.917v4.392l5.876-2.92l-0.715-1.835L-237.15,58.917z M-240.615,58.917l-5.162-0.363
			l-0.715,1.838l5.877,2.917V58.917z"/>
	</g>
</g>
<g>
	<path fill="#1E3969" d="M330.167,182.514l-0.002-0.017V169.85c0-0.765-0.624-1.391-1.397-1.391c-0.768,0-1.388,0.625-1.388,1.391
		v12.637c-0.085,3.128-2.397,5.667-5.179,5.667c-2.777,0-5.092-2.539-5.174-5.665l0.002-0.004v-12.642
		c0-0.771-0.621-1.396-1.393-1.396c-0.773,0-1.396,0.625-1.396,1.396v12.642v0.002l-0.002,0.027
		c0.083,4.135,2.922,7.574,6.569,8.284v6.929c-1.416,0.556-2.424,1.936-2.424,3.551v18.828c0,2.109,1.713,3.822,3.816,3.822
		c2.111,0,3.817-1.713,3.817-3.822v-18.828c0-1.615-1.005-2.995-2.423-3.551v-6.929
		C327.245,190.088,330.086,186.648,330.167,182.514 M323.229,220.105c0,0.568-0.455,1.028-1.028,1.028
		c-0.565,0-1.024-0.46-1.024-1.028v-18.828c0-0.57,0.459-1.031,1.024-1.031c0.573,0,1.028,0.46,1.028,1.031V220.105z"/>
	<path fill="#1E3969" d="M319.967,183.878c0.771,0,1.397-0.624,1.397-1.392v-12.647c0-0.768-0.627-1.393-1.397-1.393
		c-0.766,0-1.392,0.625-1.392,1.393v12.647C318.575,183.254,319.201,183.878,319.967,183.878"/>
	<path fill="#1E3969" d="M324.374,183.878c0.773,0,1.394-0.624,1.394-1.392v-12.647c0-0.768-0.62-1.393-1.394-1.393
		c-0.769,0-1.392,0.625-1.392,1.393v12.647C322.982,183.254,323.605,183.878,324.374,183.878"/>
	<path fill="#1E3969" d="M395.005,199.44v-30.455c0-0.498-0.262-0.952-0.689-1.203c-0.433-0.251-0.956-0.252-1.393-0.01
		c-0.245,0.142-6.06,3.535-6.06,12.291v15.015c0,0.772,0.626,1.394,1.391,1.394h3.963v1.845c-2.067,0.042-3.733,1.733-3.733,3.813
		v18.833c0,2.106,1.712,3.818,3.816,3.818c2.101,0,3.818-1.711,3.818-3.818V202.13C396.118,201.081,395.695,200.133,395.005,199.44
		 M389.646,193.68v-13.616c0-3.861,1.334-6.409,2.571-7.95v21.566H389.646z M393.324,220.962c0,0.565-0.459,1.028-1.024,1.028
		c-0.567,0-1.028-0.463-1.028-1.028V202.13c0-0.569,0.461-1.028,1.028-1.028c0.565,0,1.024,0.459,1.024,1.028V220.962z"/>
	<path fill="#1E3969" d="M356.844,169.37c-14.786,0-26.813,12.031-26.813,26.814c0,14.788,12.026,26.819,26.813,26.819
		c14.787,0,26.816-12.031,26.816-26.819C383.66,181.401,371.631,169.37,356.844,169.37 M356.844,220.213
		c-13.248,0-24.024-10.778-24.024-24.029c0-13.247,10.776-24.025,24.024-24.025c13.252,0,24.029,10.778,24.029,24.025
		C380.873,209.435,370.096,220.213,356.844,220.213"/>
	<path fill="#1E3969" d="M356.844,178.453c-9.775,0-17.735,7.952-17.735,17.735c0,9.777,7.96,17.733,17.735,17.733
		c9.784,0,17.74-7.957,17.74-17.733C374.584,186.405,366.628,178.453,356.844,178.453 M356.844,211.133
		c-8.237,0-14.948-6.706-14.948-14.945c0-8.246,6.711-14.946,14.948-14.946c8.241,0,14.948,6.701,14.948,14.946
		C371.792,204.428,365.085,211.133,356.844,211.133"/>
</g>
<g>
	<path fill="#1E3969" d="M198.161,26.885c2.877,0,5.211,2.33,5.211,5.209v19.107c0,2.877-2.334,5.208-5.211,5.208H179.05
		c-2.871,0-5.209-2.331-5.209-5.208V32.094c0-2.879,2.338-5.209,5.209-5.209H198.161z"/>
	<path fill="#FFFFFF" d="M189.517,40.557c-2.031-0.784-2.385-1.315-2.385-2.144c0-0.698,0.533-1.513,2.045-1.513
		c1.018,0,1.861,0.297,2.303,0.572l0.59,0.364l0.855-2.531l-0.387-0.226c-0.811-0.479-2.014-0.749-3.299-0.749l-0.146,0.002
		l0.146-0.002l0.135,0.002v-2.824h-2.162v3.141l0.014-0.004c-0.594,0.201-1.123,0.497-1.572,0.882
		c-0.918,0.782-1.418,1.878-1.418,3.092c0,2.006,1.305,3.461,3.992,4.437c1.873,0.699,2.238,1.336,2.238,2.203
		c0,1.127-0.871,1.797-2.334,1.797c-1.014,0-2.063-0.294-2.867-0.81l-0.605-0.388l-0.811,2.568l0.346,0.23
		c0.707,0.472,1.869,0.83,3.018,0.947v2.18h2.162v-2.25l-0.117,0.02c1.107-0.179,2.043-0.6,2.746-1.244
		c0.877-0.808,1.361-1.941,1.361-3.194C193.364,42.407,191.419,41.289,189.517,40.557 M188.843,34.341l0.127-0.006L188.843,34.341
		 M187.612,34.53l0.084-0.021L187.612,34.53 M187.851,34.473l0.088-0.018L187.851,34.473 M188.093,34.427l0.098-0.018
		L188.093,34.427 M188.343,34.388l0.102-0.012L188.343,34.388 M188.591,34.363l0.117-0.015L188.591,34.363 M187.456,34.573
		l-0.082,0.021L187.456,34.573 M188.28,49.644l-0.25,0.004L188.28,49.644 M187.423,49.627l-0.018-0.002L187.423,49.627z
		 M187.829,49.646h-0.02H187.829z M188.964,49.595l0.18-0.023L188.964,49.595 M188.343,49.641l0.244-0.011L188.343,49.641
		 M188.659,49.625l0.232-0.024L188.659,49.625"/>
	<path fill="#1E3969" d="M228.321,26.885c2.879,0,5.209,2.33,5.209,5.209v19.107c0,2.877-2.33,5.208-5.209,5.208h-19.107
		c-2.879,0-5.211-2.331-5.211-5.208V32.094c0-2.879,2.332-5.209,5.211-5.209H228.321z"/>
	<path fill="#FFFFFF" d="M226.157,38.136l1.693-2.775c0,0-0.818-1.138-2.889-2.016c-0.18-0.081-1.256-0.502-2.018-0.616
		c-4.168-0.637-6.807,1.505-7.244,1.858c-0.883,0.711-1.652,1.669-2.201,2.662c-0.266,0.479-0.463,0.994-0.664,1.505
		c-0.18,0.526-0.184,0.609-0.184,0.609l-1.959,0.013l-1.006,1.528h2.754v1.348h-1.822l-0.928,1.46h2.99l0.068,0.278
		c0.043,0.176,0.072,0.358,0.129,0.527c1.281,3.785,3.564,4.845,3.941,5.044c0.822,0.443,2.635,1.286,5.357,1.092
		c1.705-0.01,3.252-0.724,4.59-1.748c0.068-0.052,0.561-0.353,0.561-0.448v-3.819c0,0-0.287,0.346-0.926,0.889
		c-0.637,0.544-1.646,1.22-2.789,1.594c-0.693,0.242-1.527,0.332-2.289,0.332c-0.766,0-1.488-0.131-2.25-0.44
		c-0.938-0.383-1.852-1.074-2.406-1.918c-0.127-0.19-0.246-0.384-0.35-0.585c-0.113-0.22-0.211-0.424-0.379-0.786
		c0.498,0,1.002,0,1.506-0.001c0.652,0,1.307,0,1.961-0.003c0.691,0,1.385,0,2.078,0c0.563,0,1.125,0,1.688-0.002h0.787h0.016
		l0.848-1.459l-9.168-0.01v-1.351h9.523l0.918-1.539h-6.438h-3.689c0.34-0.674,0.598-0.99,0.686-1.111
		c0.26-0.349,0.559-0.663,0.885-0.947c0.709-0.615,1.529-1.093,2.461-1.269c0.596-0.111,1.301-0.174,1.908-0.099
		c0.436,0.054,0.906,0.146,1.316,0.306C224.071,36.564,225.077,37.095,226.157,38.136"/>
	<path fill="#1E3969" d="M198.161,56.976c2.877,0,5.211,2.331,5.211,5.212v19.104c0,2.878-2.334,5.209-5.211,5.209H179.05
		c-2.873,0-5.209-2.331-5.209-5.209V62.188c0-2.881,2.336-5.212,5.209-5.212H198.161z"/>
	<path fill="#FFFFFF" d="M195.536,69.519v-1.149c0-0.84-0.166-1.655-0.488-2.421c-0.314-0.741-0.764-1.405-1.334-1.977
		c-0.568-0.569-1.232-1.018-1.975-1.33c-0.766-0.326-1.58-0.487-2.42-0.487s-1.65,0.161-2.42,0.487
		c-0.736,0.313-1.402,0.761-1.975,1.33c-0.572,0.571-1.021,1.235-1.33,1.977c-0.328,0.766-0.488,1.581-0.488,2.421
		c0,0.979,0.289,1.839,0.699,2.602h-2.129v1.536h3.166c0.154,0.195,0.305,0.384,0.451,0.563c0.533,0.658,1.086,1.338,1.133,1.767
		c0.064,0.633-0.215,1.594-0.715,2.44c-0.355,0.608-0.779,1.093-1.203,1.392c-0.479,0.209-0.775,0.364-0.795,0.376l0.857,2.126
		c0.348-0.102,0.691-0.256,1.023-0.462c0.213-0.088,0.449-0.183,0.713-0.274c1.129-0.4,2.137-0.579,2.92-0.513
		c0.701,0.054,1.004,0.272,1.426,0.575c0.326,0.238,0.736,0.532,1.305,0.699c0.307,0.087,0.621,0.128,0.969,0.128
		c0.35,0,0.734-0.045,1.154-0.14l1.123-0.25l-0.498-2.247l-1.123,0.25c-0.883,0.194-1.076,0.059-1.588-0.309
		c-0.523-0.379-1.246-0.897-2.584-1.005c-0.408-0.034-0.846-0.023-1.303,0.027c0.477-1.057,0.699-2.151,0.607-3.048
		c-0.078-0.768-0.453-1.439-0.938-2.097h4.213v-1.536h-5.428c-0.627-0.815-1.156-1.664-1.156-2.602c0-2.159,1.756-3.913,3.912-3.913
		c2.16,0,3.912,1.754,3.912,3.913v1.149H195.536z"/>
	<path fill="#1E3969" d="M228.321,56.976c2.879,0,5.209,2.331,5.209,5.212v19.104c0,2.878-2.33,5.209-5.209,5.209h-19.107
		c-2.879,0-5.211-2.331-5.211-5.209V62.188c0-2.881,2.332-5.212,5.211-5.212H228.321z"/>
	<polygon fill="#FFFFFF" points="222.669,63.652 218.507,69.48 214.872,63.654 212.321,63.654 217.382,71.747 217.382,72.612 
		214.095,72.612 214.095,74.016 217.368,74.016 217.374,75.918 214.099,75.918 214.099,77.44 217.374,77.434 217.374,79.828 
		219.651,79.828 219.651,77.458 222.946,77.458 222.946,75.936 219.659,75.936 219.659,74.03 222.94,74.03 222.94,72.612 
		219.659,72.612 219.659,71.74 225.22,63.665 	"/>
</g>
<g>
	<path fill="#1E3969" d="M-99.953,211.574c-4.246,0-7.705,3.457-7.705,7.702c0,4.247,3.459,7.704,7.705,7.704
		c4.248,0,7.705-3.457,7.705-7.704C-92.248,215.03-95.705,211.574-99.953,211.574 M-99.953,222.27c-1.654,0-2.996-1.341-2.996-2.994
		c0-1.654,1.342-2.994,2.996-2.994s2.994,1.34,2.994,2.994C-96.959,220.929-98.299,222.27-99.953,222.27"/>
	<path fill="#1E3969" d="M-73.594,211.574c-4.246,0-7.703,3.457-7.703,7.702c0,4.247,3.457,7.704,7.703,7.704
		c4.25,0,7.701-3.457,7.701-7.704C-65.893,215.03-69.344,211.574-73.594,211.574 M-73.594,222.27c-1.648,0-2.996-1.341-2.996-2.994
		c0-1.654,1.348-2.994,2.996-2.994c1.652,0,3,1.34,3,2.994C-70.594,220.929-71.941,222.27-73.594,222.27"/>
	<path fill="#1E3969" d="M-66.422,210.608l9.125-35.089h-54.082l-2.633-10.126h-12.289v4.708h8.645l10.531,40.508H-66.422z
		 M-81.297,195.774h-10.955v-5.425h10.955V195.774z M-92.252,180.227h10.955v5.419h-10.955V180.227z M-76.59,190.352h10.57
		l-1.408,5.423h-9.162V190.352z M-81.297,205.901h-10.955v-5.419h10.955V205.901z M-96.959,195.774h-9.154l-1.41-5.423h10.564
		V195.774z M-104.895,200.479h7.936v5.421h-6.525L-104.895,200.479z M-76.59,205.901v-5.421h7.934l-1.408,5.421H-76.59z
		 M-64.795,185.646H-76.59v-5.419h13.199L-64.795,185.646z M-96.959,180.227v5.419h-11.791l-1.408-5.419H-96.959z"/>
</g>
<g>
	<path fill="#1E3969" d="M-212.558,180.523h-0.739l-1.884-5.305c-0.179-0.508-0.585-0.902-1.095-1.063l-2.43-0.786
		c-0.904-0.296-1.87,0.203-2.164,1.105c-0.293,0.91,0.2,1.877,1.109,2.169l1.614,0.522l1.19,3.354h-0.508
		c-0.344,0-0.647,0.202-0.788,0.505l-1.395,3.103c-0.055,0.125-0.083,0.261-0.072,0.398l0.521,9.469
		c0.024,0.453,0.406,0.813,0.862,0.813h0.537v20.52c0,2.293-1.303,4.28-3.203,5.279v-12.804c0-1.257-0.45-2.413-1.204-3.313v-35.287
		c0-3.534-2.881-6.415-6.418-6.415h-29.646c-3.534,0-6.414,2.881-6.414,6.415v35.287c-0.751,0.9-1.205,2.057-1.205,3.313v16.615
		c0,2.848,2.318,5.165,5.162,5.165h34.56c2.574,0,4.715-1.896,5.104-4.36c4.352-1.182,7.566-5.17,7.566-9.896v-20.52h0.938
		c0.471,0,0.86-0.386,0.86-0.863v-12.564C-211.697,180.907-212.087,180.523-212.558,180.523 M-243.443,209.72
		c-4.032,0-7.3-3.267-7.3-7.299c0-4.031,7.3-11.743,7.3-11.743s7.298,7.712,7.298,11.743
		C-236.146,206.453-239.412,209.72-243.443,209.72 M-229.089,181.207h-28.706v-11.529h28.706V181.207z"/>
</g>
<rect x="395.299" y="489.512" fill="#1E3969" width="1.383" height="6.844"/>
<g>
	<path fill="#1E3969" d="M378.532,492.639c-3.898,0-7.067,3.16-7.067,7.064c0,3.898,3.169,7.064,7.067,7.064
		c3.901,0,7.06-3.166,7.06-7.064S382.434,492.639,378.532,492.639"/>
	<path fill="#1E3969" d="M313.494,497.129h3.878c-0.106,0.498-0.18,1.016-0.18,1.539c0,0.443,0.05,0.873,0.128,1.293h-3.826V497.129
		z"/>
	<path fill="#1E3969" d="M336.495,497.125h2.953v0.004v2.83h-2.92c0.056-0.42,0.104-0.852,0.104-1.291
		C336.632,498.143,336.575,497.627,336.495,497.125"/>
	<path fill="#1E3969" d="M369.891,498.666c-0.065,0.428-0.106,0.854-0.106,1.293c0,0.266,0.01,0.52,0.038,0.779h-29.588v-2.072
		H369.891z"/>
	<path fill="#1E3969" d="M340.83,462.313l-0.003,6.955h-0.593v26.883v1.928h29.758c0.868-3.971,4.402-6.959,8.637-6.959
		c3.871,0,7.172,2.516,8.358,5.998l0.348,0.223h7.263v-7.953h2.266v-27.074H340.83z"/>
	<path fill="#1E3969" d="M387.429,497.928h7.954v2.074H387.5c0.022-0.258,0.038-0.518,0.038-0.787
		C387.538,498.775,387.5,498.35,387.429,497.928"/>
	<path fill="#1E3969" d="M313.754,482.01v3.098v11.248h4.306c1.038-4.084,4.739-7.115,9.137-7.115c4.404,0,8.103,3.039,9.132,7.115
		h3.169v-27.137H319.59L313.754,482.01z"/>
	<polygon fill="#FFFFFF" points="337.326,471.281 337.326,478.004 329.642,478.004 323.951,482.785 316.351,482.785 
		320.598,471.281 	"/>
	<path fill="#1E3969" d="M327.224,492.125c-4.188,0-7.577,3.395-7.577,7.578c0,4.193,3.389,7.584,7.577,7.584
		c4.186,0,7.579-3.391,7.579-7.584C334.797,495.518,331.405,492.125,327.224,492.125"/>
</g>
<g>
	<path fill-rule="evenodd" clip-rule="evenodd" fill="#1E3969" d="M183.883,162.01c2.135,0,4.267,0,6.403,0
		c0.736,0.385,0.976,1.277,1.198,2.137c0.463,1.794,1.075,3.978,1.068,5.733c-1.487,0.481-3.528,0.267-5.471,0.267
		c-1.982,0-4.075,0.203-5.602-0.267c-0.102-1.002,0.409-2.42,0.802-3.999C182.656,164.368,182.817,162.342,183.883,162.01z"/>
	<path fill-rule="evenodd" clip-rule="evenodd" fill="#1E3969" d="M193.351,172.284c-0.081,3.595-2.163,6.246-5.335,6.667
		c-4.121,0.544-7.085-2.333-7.202-6.403c0-0.132,0-0.264,0-0.399C184.658,172.462,189.73,172.186,193.351,172.284z"/>
	<path fill-rule="evenodd" clip-rule="evenodd" fill="#1E3969" d="M199.622,189.486c2.936,0.92,8.502,0.487,8.136,4.268
		c-0.129,1.315-0.934,1.422-1.603,2.404c0,7.288,0,14.581,0,21.871c6.274,0,15.748,0,23.477,0c2.989,0,5.664-0.297,5.604,2.4
		c-0.067,2.743-3.104,2.267-6.139,2.271c0.32,0.734,0.924,1.32,1.068,2.267c0.974,6.472-8.979,7.17-9.072,0.932
		c-0.02-1.383,0.614-2.164,1.204-3.199c-2.937,0-5.869,0-8.807,0c0.149,0.765,1.061,1.653,1.069,3.066
		c0.038,6.169-9.891,5.915-9.069-0.668c0.126-1.024,0.465-1.429,1.199-2.398c-1.495-0.124-3.552,0.369-4.534-0.667
		c-1.028-1.085-0.667-4.012-0.667-6.135c0-6.699,0-14.48,0-20.409c-1.529-0.828-3.556-0.499-4.934-1.333
		c-0.983-0.591-1.063-1.646-1.871-2.4c0,9.215,0,18.28,0,28.009c0,4.518,1.107,11.888-4.265,10.404
		c-2.495-0.69-2.27-3.292-2.27-6.937c0-4.579,0-10.82,0-14.938c-0.49-0.31-1.553-0.046-2.267-0.133c0,4.524,0,10.182,0,15.206
		c0,1.748,0.277,3.688-0.134,4.935c-0.837,2.541-5.252,2.634-6.135,0c-0.646-1.932-0.134-5.998-0.134-8.406
		c0-8.346,0-17.63,0-25.609c-0.953,1.792-1.69,3.601-2.666,5.734c-0.767,1.679-1.554,4.645-3.468,4.938
		c-1.563,0.241-2.994-0.806-3.201-2.131c-0.273-1.745,1.473-4.438,2.134-5.869c1.729-3.755,3.217-6.9,5.069-10.938
		c0.941-2.067,1.604-5.568,4.132-5.87c1.727-0.204,4.258,0,6.27,0c1.937,0,4.931-0.272,6.136,0.399
		c1.244,0.698,2.005,2.911,2.937,4.403C197.861,186.622,198.959,187.966,199.622,189.486z M182.416,187.085
		c0.418,0.857,2.117,0.857,2.535,0C185.617,184.502,181.751,184.502,182.416,187.085z M189.084,186.42
		c-0.04,1.66,2.3,1.851,2.667,0.532c0.354-1.267-0.611-1.957-1.598-1.732C189.342,185.403,189.099,185.787,189.084,186.42z
		 M183.751,194.554c1.004-0.037,1.614-1.241,0.934-2.398C182.26,190.73,181.559,194.636,183.751,194.554z M190.685,194.554
		c1.452-0.196,1.542-3.481-0.799-2.532C188.265,192.678,189.448,194.724,190.685,194.554z M184.284,201.221
		c0.571-0.302,0.897-1.303,0.531-2.131C182.575,197.013,181.054,201.881,184.284,201.221z M189.084,199.757
		c-0.218,2.106,2.488,1.901,2.667,0.399c0.129-1.088-0.479-1.712-1.598-1.467C189.359,198.864,189.131,199.311,189.084,199.757z
		 M208.957,225.231c-0.026,0.517-0.002,0.985,0.134,1.333C212.147,228.022,210.958,223.048,208.957,225.231z M226.428,226.697
		c0.267-0.313,0.309-0.845,0.267-1.466C224.905,223.131,223.448,227.758,226.428,226.697z"/>
	<path fill-rule="evenodd" clip-rule="evenodd" fill="#1E3969" d="M229.366,186.42c2.475,0.75,6.298-0.923,7.468,1.064
		c0.755,1.293,0.265,5.382,0.265,7.335c0,2.713,0.207,5.307-0.265,7.206c-1.599,0.863-4.124,0.536-6.537,0.536
		c-4.971,0-8.581,0-14.002,0c-2.2,0-5.331,0.25-6.271-0.67c-1.106-1.083-0.665-5.209-0.665-7.472c0-1.961-0.536-6.2,0.665-7.333
		c1.334-1.256,4.639-0.151,7.068-0.532c0.347-2.298-0.968-5.67,1.468-6.271c1.339-0.328,3.453,0,5.47,0
		c1.409,0,4.095-0.414,4.936,0.535C230.293,182.319,228.823,184.088,229.366,186.42z M220.563,186.553c1.775,0,3.553,0,5.333,0
		c0-0.933,0-1.867,0-2.8c-1.78,0-3.558,0-5.333,0C220.563,184.686,220.563,185.62,220.563,186.553z"/>
	<path fill-rule="evenodd" clip-rule="evenodd" fill="#1E3969" d="M210.825,206.292c0.071-0.024,0.11-0.124,0.268-0.132
		c5.745-0.344,12.938,0,19.604,0c1.988,0,5.125-0.212,5.871,0.532c0.779,0.784,1.041,6.586,0,7.604
		c-0.883,0.858-4.21,0.532-6.403,0.532c-4.996,0-8.76,0-13.87,0c-2.111,0-5.383,0.287-6.271-0.532
		c-0.695-0.637-0.665-2.304-0.665-4.133C209.359,208.018,209.31,206.773,210.825,206.292z"/>
</g>
<g>
	<path fill-rule="evenodd" clip-rule="evenodd" fill="#1E3969" d="M540.84,212.773c0,0.822,0,1.646,0,2.467
		c-1.053,3.644-3.54,5.851-8.567,5.516c-0.668,1.21-0.677,2.325-1.306,3.342c-2.242,3.618-7.713,5.044-11.471,2.614
		c-1.712-1.107-3.315-3.199-3.634-5.956c-8.081,0-16.161,0-24.24,0c-0.524,2.506-1.921,4.753-3.774,5.956
		c-4.937,3.19-12.01-0.22-12.636-5.956c-2.607-0.387-7.842,0.929-8.71-1.016c0-2.079,0-4.162,0-6.241
		c3.813,0.197,3.974-6.203,0-5.956c0-2.227,0-4.451,0-6.68c2.455-4.025,4.645-8.183,7.112-12.483
		c0.724-1.259,1.742-3.478,2.761-3.775c1.138-0.333,3.07,0,4.502,0c4.789,0,9.328,0,13.936,0c0.441-0.2-0.203-0.631-0.287-0.727
		c-0.84-0.931-1.731-1.729-2.613-2.614c-1.031-1.033-2.404-2.898-3.633-3.194c-1.539-0.371-4.013,0-6.097,0
		c-1.927,0-4.049,0.131-5.663-0.435c-1.833-0.644-3.27-2.262-3.919-3.92c-1.468-3.757,0.688-8.07,4.5-9.002
		c1.747-0.426,4.748-0.145,7.986-0.145c2.709,0,6.272-0.385,8.131,0.145c2.472,0.705,4.744,3.727,6.682,5.661
		c11.879,11.882,23.883,23.885,35.567,35.571C537.643,208.127,540.386,210.196,540.84,212.773z M498.586,188.089
		c-0.006-0.154-0.184-0.114-0.139,0.146c0,6.533,0,13.066,0,19.601c6.577,0,13.158,0,19.742,0
		C512.09,201.276,505.059,194.533,498.586,188.089z M477.827,195.203c-0.771,1.353-2.204,2.728-1.745,4.939
		c5.279,0,10.553,0,15.83,0c0-3.196,0-6.388,0-9.585c-3.826,0-7.646,0-11.475,0C479.386,192.012,478.692,193.688,477.827,195.203z
		 M480.004,216.835c-2.063,2.519-0.457,7.119,3.194,7.263c3.322,0.128,5.268-3.12,4.356-5.954c-0.614-1.916-2.997-3.019-5.08-2.614
		C481.492,215.72,480.513,216.22,480.004,216.835z M519.932,221.63c1.404,3.284,7.064,3,8.128-0.291
		c1.1-3.385-1.264-6.451-4.935-5.81C520.371,216.014,518.69,218.72,519.932,221.63z"/>
</g>
<g>
	<path fill-rule="evenodd" clip-rule="evenodd" fill="#1E3969" d="M-233.714,451.689c6.275,2.055,10.449,6.208,10.666,14.316
		c-4.812,1.367-8.996,4.158-14.879,4.491c-6.411,0.368-11.292-3.049-16.419-4.491c0.149-8.175,4.398-12.252,10.665-14.316
		c-0.841-3.361,2.26-2.806,5.476-2.806C-235.181,448.884-233.232,448.523-233.714,451.689z M-239.609,464.045
		c2.354,0.439,4.818-1.069,4.209-4.213c-0.342-1.775-2.435-2.782-4.209-2.385C-242.638,458.117-243.238,463.363-239.609,464.045z"/>
	<path fill-rule="evenodd" clip-rule="evenodd" fill="#1E3969" d="M-212.377,469.376c0.304,7.374-3.81,11.54-8.145,14.74
		c0-2.574,0-5.146,0-7.723c-1.065,0.244-1.828,0.787-2.665,1.265c-0.093,2.148,0.122,4.486,0,6.315
		c-0.552,8.223-6.886,14.191-14.456,14.74c-5.12,0.369-9.445-1.831-12.212-4.631c-3.485-3.522-4.94-8.593-4.355-16.284
		c-0.721-0.637-1.709-1.002-2.666-1.405c-0.329,2.293-0.047,5.192-0.139,7.723c-2.311-1.372-4.247-3.442-5.755-5.758
		c-1.473-2.245-2.766-5.212-2.388-8.841c1.107-0.979,3.161-1.248,4.911-1.262c3.868-0.037,7.201,1.064,10.392,2.525
		c3.338,1.534,7.258,2.916,11.928,2.667c3.577-0.189,7.211-1.167,10.247-2.53c2.942-1.317,5.967-2.658,10.107-2.662
		C-215.938,468.25-214.073,468.422-212.377,469.376z"/>
	<path fill-rule="evenodd" clip-rule="evenodd" fill="#1E3969" d="M-215.466,520.751c-15.532,0-31.066,0-46.605,0
		c0.322-8.408,4.983-15.443,12.918-18.108c4.18-1.399,9.574-1.253,14.315-1.121c4.788,0.133,8.834,1.58,11.79,3.79
		C-218.773,508.499-215.596,513.901-215.466,520.751z"/>
</g>
<g>
	<path fill-rule="evenodd" clip-rule="evenodd" fill="#1E3969" d="M525.18,517.778c-2.444,0-4.89,0-7.336,0
		c-0.083-0.175-0.274-0.242-0.514-0.259c-0.917-1.185-0.363-3.837-0.515-5.792c-8.75,0-17.5,0-26.253,0
		c-0.149,1.955,0.404,4.607-0.514,5.792c-0.24,0.017-0.43,0.084-0.514,0.259c-2.446,0-4.893,0-7.336,0
		c-1.582-0.738-0.656-3.981-0.9-6.051c-2.61-0.004-4.488-1.273-5.146-3.347c-0.471-1.471-0.571-4.076-0.13-5.917
		c0.263-1.102,1.339-1.84,1.541-2.834c0.298-1.438,0-3.383,0-5.146c0-5.256,0-11.014,0-15.829c-1.206-0.023-2.969,0.151-3.729-0.513
		c-0.852-0.743-0.643-3.461-0.643-6.051c0-2.22-0.353-5.409,0.385-6.434c0.754-1.046,2.435-0.733,3.987-0.771
		c-0.647-5.973,0.918-9.989,4.509-11.969c2.669-1.47,7.933-1.029,12.221-1.029c6.04,0,12.741,0,18.791,0
		c4.987,0,9.916-0.484,12.611,1.161c3.377,2.058,4.713,6.287,4.117,11.837c1.315,0.186,2.445-0.339,3.473,0.258
		c1.25,0.727,0.902,4.228,0.902,6.563c0,2.761,0.356,5.835-0.902,6.563c-0.795,0.462-2.46,0.184-3.473,0.257
		c0,4.777,0,10.813,0,15.83c0,1.812-0.339,3.95,0,5.404c0.141,0.601,0.562,0.745,0.9,1.286c0.258,0.408,0.53,1.035,0.643,1.543
		c1.099,5.029-0.759,9.376-5.273,9.137C525.833,513.797,526.764,517.04,525.18,517.778z M492.238,458.837
		c0.071,1.872,1.711,2.179,4.117,2.19c4.598,0.024,8.174,0,12.868,0c3.119,0,6.032,0.317,5.92-2.446
		c-0.068-1.655-1.361-2.131-3.478-2.187c-1.898-0.053-3.999,0-5.658,0c-3.438,0-8.681-0.375-11.587,0.129
		C492.921,456.783,492.174,457.321,492.238,458.837z M482.973,466.046c0,6.949,0,13.897,0,20.849c6.091,0,12.18,0,18.271,0
		c0-7.079,0-14.159,0-21.236c-6.046,0-12.097,0-18.144,0C482.95,465.683,482.959,465.864,482.973,466.046z M506.136,466.046
		c0,6.949,0,13.897,0,20.849c6.091,0,12.181,0,18.271,0c0-7.079,0-14.159,0-21.236c-6.05,0-12.095,0-18.144,0
		C506.114,465.683,506.122,465.864,506.136,466.046z M483.101,492.813c-0.554,1.099-0.485,4.384,0.384,5.275
		c0.803,0.818,2.61,0.664,3.988,0.642c1.637-0.021,3.031-0.183,3.475-1.285c0.376-0.925,0.309-3.748,0-4.506
		c-0.604-1.495-3.632-1.642-6.047-1.158C484.168,491.929,483.484,492.042,483.101,492.813z M516.43,492.939
		c-0.324,0.8-0.438,3.422,0,4.506c0.63,1.554,6.152,1.981,7.463,0.644c0.886-0.911,0.999-4.756,0-5.792
		c-0.69-0.714-3.584-0.894-5.535-0.516C517.539,491.941,516.717,492.231,516.43,492.939z"/>
</g>
<g>
	<path fill-rule="evenodd" clip-rule="evenodd" fill="#1E3969" d="M-197.683,617.855c0,0.748,0,1.497,0,2.247
		c-0.983,2.936-3.117,4.861-6.424,4.337c-2.935-0.465-5.17-3.867-7.229-5.621c-6.686-5.697-15.738-10.431-28.422-9.955
		c-11.954,0.449-20.527,5.106-26.977,11.559c-1.837,1.838-4.606,5.21-7.386,5.302c-3.219,0.109-4.87-1.941-5.782-4.495
		c0-0.749,0-1.499,0-2.249c0.818-2.356,2.961-4.389,4.816-6.101c8.83-8.15,20.995-15.184,37.258-15.099
		c13.595,0.074,25.051,5.421,32.918,11.884C-202.62,611.546-198.579,615.109-197.683,617.855z"/>
	<path fill-rule="evenodd" clip-rule="evenodd" fill="#1E3969" d="M-239.757,617.855c10.363-0.766,18.391,3.566,23.929,8.992
		c1.888,1.852,4.296,3.778,4.335,6.584c0.05,3.491-3.162,6.877-7.385,6.102c-2.967-0.539-5.493-4.646-7.871-6.263
		c-6.794-4.611-16.244-4.159-22.483,0.321c-1.429,1.027-2.863,2.546-4.335,4.015c-1.502,1.502-3.019,2.95-5.139,3.051
		c-3.642,0.17-6.881-2.703-6.423-6.901c0.275-2.518,2.741-4.351,4.335-5.942c3.686-3.687,6.942-6.234,12.366-8.19
		C-245.7,618.638-243.134,618.104-239.757,617.855z"/>
	<path fill-rule="evenodd" clip-rule="evenodd" fill="#1E3969" d="M-240.077,640.657c6.813-0.957,12.58,4.807,10.921,11.883
		c-0.938,3.996-4.709,6.896-8.513,7.228c-5.831,0.508-10.864-4.116-10.601-9.956c0.177-3.815,1.912-6.297,4.339-7.872
		C-243.032,641.358-241.618,640.873-240.077,640.657z"/>
</g>
<g>
	<path fill-rule="evenodd" clip-rule="evenodd" fill="#1E3969" d="M236.148,312.135c-5.086,5.124-10.85,9.541-16.254,14.352
		c-5.361,4.772-10.785,9.536-16.107,14.352c-0.098,0-0.195,0-0.295,0c-8.031-7.217-16.188-14.3-24.309-21.527
		c-2.688-2.396-5.682-4.459-8.053-7.176c2.449-1.396,6.379-1.023,10.541-1.023c14.279,0,29.457,0,43.934,0
		C229.66,311.112,233.459,310.701,236.148,312.135z"/>
	<path fill-rule="evenodd" clip-rule="evenodd" fill="#1E3969" d="M166.152,359.436c0-13.474,0-26.945,0-40.416
		c0.406-1.255,0.74-2.581,1.465-3.513c7.842,6.798,15.652,13.632,23.43,20.499c-7.43,8.188-14.977,16.883-22.26,25.039
		c-0.477,0.536-1.119,1.29-1.609,1.32C166.762,361.464,166.506,360.399,166.152,359.436z"/>
	<path fill-rule="evenodd" clip-rule="evenodd" fill="#1E3969" d="M240.102,362.366c-0.492-0.03-1.135-0.784-1.611-1.32
		c-7.303-8.183-14.934-16.84-22.258-25.186c7.936-6.661,15.563-13.627,23.43-20.353c0.125-0.03,0.139,0.056,0.146,0.145
		c1.928,3.004,1.32,8.149,1.32,13.619c0,6.366,0,13.392,0,19.913C241.129,354.301,241.654,359.092,240.102,362.366z"/>
	<path fill-rule="evenodd" clip-rule="evenodd" fill="#1E3969" d="M212.865,339.082c7.854,9.034,15.91,17.865,23.869,26.796
		c-2.424,1.954-6.584,1.466-11.129,1.466c-11.77,0-24.553,0-36.609,0c-5.107,0-10.182,0.48-14.645,0
		c-1.471-0.158-2.453-0.813-3.805-1.318c7.895-9.091,15.977-17.994,24.014-26.943c0.117,0.025,0.146,0.146,0.293,0.146
		c1.234,1.374,2.641,2.231,4.248,3.659c1.201,1.07,2.83,3.369,4.537,3.369c0.797,0,1.828-0.757,2.639-1.465
		C208.512,342.83,210.525,340.713,212.865,339.082z"/>
</g>
<g>
	<path fill="#1E3969" d="M376.599,36.098c3.091,0.032,5.638-2.487,5.651-5.575c0.014-3.102-2.487-5.633-5.59-5.648
		c-3.089-0.016-5.621,2.485-5.638,5.579C371.009,33.557,373.51,36.088,376.599,36.098"/>
	<path fill="#1E3969" d="M320.426,57.164c0,0-1.198,2.529,1.024,3.41c1.741,0.685,2.549-0.486,3.117-1.948l4.743-13.361l1.481-0.017
		l-6.998,21.603h7.145l0.067,18.499c0,1.739,1.438,3.178,3.194,3.161c1.768,0,3.188-1.435,3.173-3.191l-0.054-18.455h1.226
		l-0.06,18.455c0,1.757,1.391,3.191,3.195,3.191c1.738,0.017,3.16-1.422,3.168-3.161l0.079-18.499h7.143l-6.998-21.603l1.479,0.017
		l4.738,13.361c0.561,1.462,1.378,2.633,3.107,1.948c2.253-0.88,1.057-3.41,1.057-3.41l-4.191-12.911c0,0-1.943-5.916-9.98-6.105
		l-2.945-0.014h-0.8c-3.104,0.014-10.813-0.262-12.926,6.119L320.426,57.164z"/>
	<path fill="#1E3969" d="M363.459,57.761c0,1.302,1.053,2.374,2.371,2.374c1.316,0.011,2.368-1.041,2.368-2.356v-0.017l0.075-12.847
		l1.535,0.012l-0.235,40.339c0,1.751,1.422,3.174,3.179,3.188c1.758,0,3.162-1.406,3.192-3.134l0.028-0.027l0.148-25.992l1.43,0.017
		l-0.134,25.975c0,1.771,1.423,3.208,3.177,3.22c1.784,0,3.207-1.435,3.221-3.193l0.191-40.246h1.503l0.02,12.631v0.101
		c0,1.318,1.041,2.371,2.343,2.386c1.3,0,2.382-1.055,2.382-2.371l-0.014-0.088h0.014V44.061c0,0,0.313-5.913-7.738-6.098
		l-11.213,0.172c0,0-7.199-0.38-7.756,5.779l-0.087,13.833V57.761z"/>
	<path fill="#1E3969" d="M332.297,31.038c0-3.001,2.43-5.446,5.43-5.446c2.998,0,5.445,2.444,5.445,5.446
		c0,3-2.447,5.428-5.445,5.428C334.727,36.465,332.297,34.037,332.297,31.038"/>
	<line fill="#1E3969" x1="358.71" y1="27.584" x2="358.71" y2="85.341"/>
	<polyline fill="#1E3969" points="358.585,27.584 358.585,85.341 358.835,85.341 358.835,27.584 	"/>
</g>
<g>
	<g>
		<defs>
			<rect id="SVGID_3_" x="24.159" y="160.792" width="65.068" height="70.788"/>
		</defs>
		<clipPath id="SVGID_4_">
			<use xlink:href="#SVGID_3_"  overflow="visible"/>
		</clipPath>
		<path clip-path="url(#SVGID_4_)" fill="#1E3969" d="M78.279,184.849l2.922-13.132h-2.068v-2.772H66.405v-6.165h5.432v-1.987
			H59.398v1.987h5.438v6.165H52.106v2.772h-2.065l2.919,13.132H42.318l5.302,16.639c0,0,2.471,1.18,8.206,1.918v2.289l3.593,1.496
			c0.485,0.198,0.768,0.717,0.675,1.238c-0.091,0.524-0.528,0.909-1.06,0.937l-3.208,0.168v1.047l0.804,0.335
			c0.147,0.06,0.354,0.146,0.417,0.15c0.555-0.142,3.504-1.002,8.078-2.346l0.237-0.072c0.244-0.071,0.511-0.051,0.744,0.043
			l3.273,1.363c0.348,0.146,0.606,0.463,0.673,0.838c0.073,0.377-0.053,0.763-0.331,1.028l-3.955,3.769
			c0.265,0.342,0.415,0.728,0.419,1.133c0.002,0.679-0.397,1.271-1.049,1.557c-0.282,0.118-0.732,0.239-1.979,0.239
			c-1.823,0-4.852-0.272-7.332-0.743v13.445h19.585v-27.871c5.853-0.736,8.203-1.96,8.203-1.96l5.303-16.639H78.279z
			 M75.523,176.265l-1.522,6.834H57.236l-1.522-6.834H75.523z M81.12,198.069H50.116l-3.122-9.804h37.248L81.12,198.069z"/>
		<path clip-path="url(#SVGID_4_)" fill="#1E3969" d="M65.017,217.375c0.609-0.264,0.484-1.045-0.56-1.48l-0.114-0.045l0.056-0.063
			l4.876-4.65l-3.27-1.363l-0.075,0.022c-0.072,0.021-7.285,2.151-8.301,2.406c-0.415,0.104-0.751-0.066-1.244-0.262l-7.596-3.157
			l2.615-0.126l0.02,0.008l2.088,0.652c0.091,0.03,0.19-0.018,0.229-0.108l0.134-0.332l-0.083-0.237l-0.171-0.088l5.691-0.282
			l-3.71-1.545l-15.014-2.042c-4.48-2.464-10.475-4.961-10.475-4.961c-1.164-0.484-4.5,0.061-4.5,0.061
			c-4.894,0.559,4.104,5.89,4.104,5.89c1.945,0.941,3.829,1.828,5.629,2.66l2.619,2.283c-0.103,0.134-0.191,0.285-0.269,0.47
			c-0.263,0.628-0.202,1.188,0.146,1.329c0.034,0.015,0.888,0.348,1.253,0.464c0.771,0.247,1.412,0.38,1.917,0.404l1.661,1.451
			c-0.078,0.116-0.153,0.248-0.214,0.397c-0.262,0.63-0.198,1.191,0.147,1.333c0.033,0.014,0.891,0.342,1.258,0.465
			c0.691,0.225,1.288,0.354,1.772,0.396l4.068,3.557l3.711,1.544l-6.722-9.12c4.265,1.778,4.279,1.675,6.867,2.751
			C56.146,217.128,63.914,217.85,65.017,217.375"/>
	</g>
</g>
<g>
	<path fill="#1E3969" d="M-234.047,308.045c-16.943,0-30.738,13.793-30.738,30.74c0,0.113,0.006,0.226,0.006,0.342
		c3.014,1.438,7.174,2.577,12.209,3.288c1.717,0.245,3.555,1.563,4.287,3.068l0.625,1.279c0.441,0.916,0.43,1.837-0.033,2.523
		c-0.424,0.627-1.158,0.976-2.035,0.976l-0.244-0.015c-3.264-0.23-8.543-0.88-13.529-2.672c3.795,12.68,15.561,21.949,29.453,21.949
		c16.951,0,30.744-13.79,30.744-30.739C-203.303,321.838-217.096,308.045-234.047,308.045 M-234.047,366.617
		c-10.281,0-19.682-5.803-24.484-14.631c3.15,0.668,6.092,1.006,8.346,1.163c0.158,0.013,0.309,0.02,0.459,0.02
		c1.455,0,2.764-0.501,3.717-1.406c0.678,0.699,1.453,1.387,2.324,2.063l0.252,0.2l0.783,0.608h6.203
		c-0.359,1.591-0.105,3.076,0.734,4.263c0.869,1.221,2.248,1.925,3.779,1.925c1.07,0,2.145-0.341,3.189-1.014
		c1.996-1.299,4.014-3.035,6.008-5.174h7.5c0.266,0,0.799,0.043,1.316,0.087l0.121,0.014c0.752,0.061,1.588,0.134,2.439,0.164
		C-216.412,361.984-224.699,366.617-234.047,366.617 M-208.385,351.712c-0.563,0.194-1.305,0.292-2.279,0.292
		c-0.959,0-1.998-0.09-2.91-0.171c-0.662-0.057-1.246-0.11-1.666-0.11h-8.791c-1.691,1.926-3.855,4.064-6.293,5.636
		c-0.57,0.37-1.109,0.552-1.609,0.552c-0.588,0-1.086-0.246-1.412-0.701c-0.42-0.595-0.467-1.46-0.123-2.437l1.068-3.05h-9.25
		l-0.254-0.198c-2.961-2.299-4.559-4.665-4.752-7.041c-0.182-2.375,1.148-3.838,1.205-3.9l0.584-0.619l3.854,2.913h25.773
		c2.24,0,8.314,4.35,8.314,7.012C-206.926,350.292-207.072,351.257-208.385,351.712 M-206.813,344.548
		c-2.596-2.612-6.371-4.573-8.428-4.573h-24.801l-3.07-2.331l-2.098-1.578l-1.785,1.919l-0.596,0.63
		c-0.199,0.224-0.83,0.96-1.322,2.131c-1.012-0.618-2.133-1.05-3.258-1.21c-3.764-0.529-7.064-1.324-9.668-2.317
		c0.818-14.62,12.973-26.264,27.791-26.264c15.35,0,27.838,12.482,27.838,27.831C-206.209,340.761-206.42,342.689-206.813,344.548"
		/>
	<path fill="#1E3969" d="M-215.24,344.754h-26.402l-2.867-2.155c-0.18,0.423-0.332,1.031-0.264,1.781
		c0.152,1.725,1.455,3.611,3.773,5.474h9.258l1.363-3.909h6.053c1.145,0,2.016,0.455,2.404,1.235c0.377,0.771,0.199,1.714-0.49,2.59
		l-0.059,0.084h7.23c0.457,0,1.102,0.046,1.824,0.109c0.873,0.074,1.869,0.16,2.752,0.16c1.447,0,1.814-0.23,1.857-0.23
		C-208.828,348.635-213.68,344.754-215.24,344.754"/>
	<g>
		<defs>
			<rect id="SVGID_5_" x="-274.387" y="308.046" width="71.189" height="62.523"/>
		</defs>
		<clipPath id="SVGID_6_">
			<use xlink:href="#SVGID_5_"  overflow="visible"/>
		</clipPath>
		<path clip-path="url(#SVGID_6_)" fill="#1E3969" d="M-224.326,347.822h-4.725l-0.705,2.027l-0.658,1.876l-1.287,3.672
			c-0.098,0.29-0.123,0.495-0.119,0.622c0.1-0.029,0.258-0.092,0.477-0.232c1.756-1.146,3.375-2.608,4.764-4.062
			c0.299-0.313,0.592-0.626,0.869-0.939c0.291-0.314,0.559-0.628,0.82-0.937c0.355-0.435,0.701-0.846,1.002-1.233
			c0.295-0.374,0.289-0.59,0.277-0.613C-223.641,347.95-223.85,347.822-224.326,347.822"/>
		<path clip-path="url(#SVGID_6_)" fill="#1E3969" d="M-266.867,344.043c0.453,0.251,0.92,0.489,1.396,0.711
			c0.461,0.219,0.926,0.421,1.4,0.612c5.092,2.058,10.83,2.77,14.232,3.007c0.326,0.021,0.531-0.052,0.592-0.137
			c0.064-0.097,0.055-0.332-0.1-0.652l-0.625-1.285c-0.459-0.939-1.771-1.865-2.869-2.027c-3.313-0.465-7.955-1.376-11.84-3.026
			c-0.449-0.194-0.877-0.393-1.299-0.604c-0.438-0.222-0.873-0.449-1.283-0.691c-2.029-1.216-3.623-2.714-4.328-4.59
			c-1.592-4.261,3.326-7.392,6.58-9.464l0.451-0.288l0.367-0.232l0.512,0.785l0.896-1.444l2.068-3.309
			c-0.092,0.04-0.184,0.089-0.271,0.132c-0.645,0.324-1.348,0.683-2.094,1.089c-5.148,2.754-12.064,7.251-11.242,12.016
			C-273.57,339.01-270.598,341.999-266.867,344.043"/>
	</g>
</g>
<g>
	<path fill="#1E3969" d="M513.325,62.264c-0.542-0.621-1.326-1.152-2.153-1.152h-14.918c-0.829,0-1.615,0.532-2.152,1.152
		c-0.54,0.624-0.785,1.542-0.674,2.356l2.501,17.479c0.201,1.4,1.403,2.477,2.824,2.477h9.929c1.414,0,2.618-1.031,2.819-2.436
		l2.489-17.526C514.105,63.798,513.862,62.887,513.325,62.264"/>
	<path fill="#1E3969" d="M490.801,67.815c-0.907-0.403-1.956-0.305-2.77,0.256l-6.681,4.603c-1.297,0.896-1.618,2.671-0.734,3.968
		l5.768,8.357c0.839,1.209,2.455,1.587,3.737,0.869l2.491-1.387c1.026-0.572,1.598-1.711,1.441-2.879l-1.586-11.567
		C492.346,69.049,491.706,68.214,490.801,67.815"/>
	<path fill="#1E3969" d="M481.587,81.631c-0.322-0.423-0.857-0.623-1.385-0.5c-0.515,0.116-0.912,0.53-1.016,1.045l-1.286,6.4
		c-0.108,0.523,0.109,1.063,0.538,1.366c0.441,0.309,1.016,0.333,1.475,0.061l4.207-2.499c0.331-0.201,0.56-0.524,0.643-0.902
		c0.069-0.372-0.02-0.768-0.249-1.076L481.587,81.631z"/>
	<path fill="#1E3969" d="M525.993,72.676l-6.682-4.607c-0.815-0.555-1.862-0.657-2.769-0.253c-0.906,0.391-1.539,1.236-1.675,2.219
		l-1.579,11.567c-0.163,1.169,0.41,2.309,1.435,2.879l2.49,1.391c1.288,0.713,2.907,0.336,3.737-0.873l5.765-8.355
		C527.609,75.347,527.289,73.57,525.993,72.676"/>
	<path fill="#1E3969" d="M529.442,88.57l-1.29-6.393c-0.102-0.526-0.502-0.931-1.021-1.056c-0.515-0.113-1.058,0.086-1.374,0.509
		l-2.931,3.896c-0.231,0.31-0.314,0.696-0.241,1.076c0.076,0.372,0.308,0.701,0.636,0.895l4.211,2.504
		c0.456,0.272,1.032,0.25,1.472-0.062C529.337,89.63,529.549,89.101,529.442,88.57"/>
	<path fill="#1E3969" d="M503.93,58.306c2.092,0,20.502-0.181,20.502-6.465c0-2.8-3.659-4.392-7.896-5.292
		c0.164-0.265,0.314-0.552,0.464-0.831l2.908-0.266c2.334-0.056,4.289-1.813,4.546-4.104l0.588-4.991
		c0.143-1.286-0.236-2.345-1.16-3.393c-1.067-1.188-2.535-1.121-3.503-1.121h-1.333l0.286-4.106l0.01-0.098v-0.122
		c0-2.385-6.905-4.325-15.411-4.325c-8.523,0-15.427,1.928-15.427,4.31l0.005,0.098v0.061l0.931,12.967
		c0.151,2.167,0.82,4.179,1.872,5.92c-4.235,0.9-7.9,2.492-7.9,5.292C483.41,58.125,501.828,58.306,503.93,58.306 M518.407,40.799
		l0.448-6.013h1.95c1.224,0,1.592,1.187,1.55,1.615l-0.608,4.82c-0.118,0.98-0.884,1.39-1.898,1.427
		c-0.437,0.021-1.747,0.124-1.747,0.124C518.288,42.031,518.352,41.578,518.407,40.799 M503.93,26.33
		c5.582,0,10.103,0.951,10.103,2.118c0,1.176-4.521,2.121-10.103,2.121c-5.589,0-10.114-0.945-10.114-2.121
		C493.815,27.281,498.341,26.33,503.93,26.33 M493.987,49.421c2.34,2.025,5.39,2.942,8.706,2.942h2.457
		c3.323,0,6.373-0.917,8.708-2.942c3.678,0.601,6.049,1.607,6.813,2.271c-1.325,1.13-7.383,2.934-16.742,2.934
		c-9.368,0-15.433-1.842-16.749-2.971C487.942,51.001,490.309,50.021,493.987,49.421"/>
</g>
<g>
	<path fill="#1E3969" d="M46.535,350.3c0,0-7.862-0.464-10.174,1.645c-2.316,2.116-2.316,5.535,0,7.646
		c2.312,2.11,6.058,2.11,8.37,0C47.038,357.48,46.535,350.3,46.535,350.3"/>
	<path fill="#1E3969" d="M61.479,349.804c-1.127,0.256-2.115,0.63-2.725,1.185c-2.311,2.115-2.311,5.535,0,7.646
		c2.31,2.111,6.06,2.111,8.367,0c1.958-1.786,1.897-7.209,1.834-8.831H61.479z"/>
	<path fill="#1E3969" d="M45.962,364.133c-2.317,2.111-2.317,5.534,0,7.646c2.311,2.108,6.059,2.108,8.37,0
		c2.311-2.111,1.805-9.295,1.805-9.295S48.272,362.022,45.962,364.133"/>
	<path fill="#1E3969" d="M89.473,318.531c0-0.952-2.605-1.623-2.828-2.519c-0.229-0.919,1.79-2.552,1.354-3.382
		c-0.447-0.846-3.11-0.417-3.744-1.145c-0.64-0.728,0.405-3.007-0.39-3.589c-0.793-0.578-2.992,0.86-3.914,0.451
		c-0.911-0.4-1.053-2.868-2.055-3.081c-0.979-0.202-2.271,1.966-3.316,1.966c-1.042,0-2.336-2.168-3.312-1.966
		c-1.007,0.213-1.144,2.681-2.057,3.081c-0.922,0.409-3.122-1.029-3.916-0.451c-0.363,0.271-0.341,0.892-0.271,1.555
		c1.064,0.886,2.035,1.871,2.879,2.959c1.725-1.57,4.096-2.557,6.681-2.557c5.173,0,9.497,3.949,9.497,8.677
		c0,0.948-0.179,1.865-0.495,2.724c0.76,0.453,1.49,0.96,2.167,1.516c0.725,0.601,1.379,1.247,1.966,1.933
		c0.124-0.069,0.221-0.158,0.279-0.269c0.436-0.829-1.584-2.469-1.354-3.386C86.867,320.155,89.473,319.485,89.473,318.531"/>
	<path fill="#1E3969" d="M72.821,320.81c-2.245,0-4.358,0.501-6.222,1.378c0.002-0.094,0.003-0.188,0.003-0.277
		c0-8.406-7.458-15.224-16.663-15.224c-9.02,0-16.365,6.551-16.649,14.731c-5.442,1.613-9.376,6.278-9.376,11.785
		c0,6.844,6.074,12.396,13.567,12.396h35.34c7.491,0,13.567-5.552,13.567-12.396C86.389,326.358,80.313,320.81,72.821,320.81"/>
</g>
<g>
	<path fill="#1E3969" d="M88.99,456.918H24.398c-0.91,0-1.646,0.738-1.646,1.646v41.467c0,0.906,0.736,1.641,1.646,1.641h23.68
		l-1.266,7.723h-4.273c-0.906,0-1.645,0.736-1.645,1.639c0,0.91,0.738,1.648,1.645,1.648h28.309c0.906,0,1.645-0.738,1.645-1.648
		c0-0.902-0.738-1.639-1.645-1.639h-4.238l-1.088-7.723H88.99c0.906,0,1.645-0.734,1.645-1.641v-41.467
		C90.635,457.656,89.896,456.918,88.99,456.918 M48.207,462.627h3.594c0.904,0,1.639,0.73,1.639,1.639
		c0,0.91-0.734,1.646-1.639,1.646h-3.594c-0.91,0-1.645-0.736-1.645-1.646C46.563,463.357,47.297,462.627,48.207,462.627
		 M31.154,462.627h3.594c0.908,0,1.645,0.73,1.645,1.639c0,0.91-0.736,1.646-1.645,1.646h-3.594c-0.908,0-1.643-0.736-1.643-1.646
		C29.512,463.357,30.246,462.627,31.154,462.627 M58.055,476.684l-7.832,2.404l-5.209,8.916c-0.303,0.514-0.848,0.813-1.418,0.813
		c-0.18,0-0.361-0.027-0.531-0.088c-0.74-0.254-1.201-0.994-1.098-1.766l0.721-5.564l-6.963,2.137l-1.57,2.006
		c-0.328,0.414-0.811,0.633-1.297,0.633c-0.357,0-0.713-0.115-1.014-0.352c-0.717-0.555-0.84-1.592-0.281-2.303l0.988-1.264
		l-2.547-2.508c-0.553-0.543-0.65-1.4-0.234-2.057c0.418-0.65,1.234-0.926,1.963-0.654l4.824,1.797l0.068,0.025l17.438-6.029
		c0.297-0.104,0.619-0.115,0.93-0.043l2.975,0.734c0.719,0.176,1.23,0.813,1.252,1.549
		C59.238,475.807,58.764,476.471,58.055,476.684 M61.68,465.912h-3.596c-0.904,0-1.645-0.736-1.645-1.646
		c0-0.908,0.74-1.639,1.645-1.639h3.596c0.906,0,1.645,0.73,1.645,1.639C63.324,465.176,62.586,465.912,61.68,465.912
		 M77.846,462.627h3.596c0.904,0,1.641,0.73,1.641,1.639c0,0.91-0.736,1.646-1.641,1.646h-3.596c-0.914,0-1.645-0.736-1.645-1.646
		C76.201,463.357,76.932,462.627,77.846,462.627 M67.965,462.627h3.592c0.91,0,1.646,0.73,1.646,1.639
		c0,0.91-0.736,1.646-1.646,1.646h-3.592c-0.908,0-1.643-0.736-1.643-1.646C66.322,463.357,67.057,462.627,67.965,462.627
		 M79.943,488.158H66.932c-0.91,0-1.645-0.734-1.645-1.646c0-0.906,0.734-1.639,1.645-1.639h13.012c0.91,0,1.645,0.732,1.645,1.639
		C81.588,487.424,80.854,488.158,79.943,488.158 M65.287,480.447c0-0.908,0.734-1.641,1.645-1.641h7.693
		c0.91,0,1.645,0.732,1.645,1.641c0,0.912-0.734,1.645-1.645,1.645h-7.693C66.021,482.092,65.287,481.359,65.287,480.447
		 M83.365,476.031H66.932c-0.91,0-1.645-0.738-1.645-1.646s0.734-1.645,1.645-1.645h16.434c0.908,0,1.643,0.736,1.643,1.645
		S84.273,476.031,83.365,476.031"/>
</g>
<g>
	<path fill="#1E3969" d="M346.072,327.7l-4.396-4.155c0.51-0.926,0.83-1.98,0.83-3.11c0-3.599-2.916-6.512-6.51-6.512
		c-3.603,0-6.518,2.913-6.518,6.512c0,3.59,2.915,6.506,6.518,6.506c1.263,0,2.44-0.377,3.438-1.002l4.387,4.144
		C344.486,329.204,345.229,328.402,346.072,327.7"/>
	<path fill="#1E3969" d="M364.634,327.172l5.833-9.813c0.577,0.162,1.166,0.285,1.797,0.285c3.6,0,6.516-2.918,6.516-6.517
		c0-3.595-2.916-6.508-6.516-6.508s-6.507,2.906-6.507,6.508c0,1.785,0.721,3.405,1.883,4.58l-5.816,9.786
		C362.827,325.953,363.762,326.511,364.634,327.172"/>
	<path fill="#1E3969" d="M384.748,335.391c-2.794,0-5.161,1.784-6.088,4.267l-8.105-0.802l0.009,0.179
		c0,1.054-0.11,2.09-0.321,3.089l8.097,0.792c0.498,3.112,3.163,5.496,6.409,5.496c3.6,0,6.518-2.916,6.518-6.505
		C391.266,338.306,388.348,335.391,384.748,335.391"/>
	<path fill="#1E3969" d="M362.393,360.995l-1.817-7.916c-1.017,0.351-2.083,0.604-3.192,0.736l1.813,7.92
		c-2.083,1.089-3.516,3.243-3.516,5.751c0,3.594,2.908,6.508,6.516,6.508c3.592,0,6.507-2.914,6.507-6.508
		C368.703,363.955,365.895,361.101,362.393,360.995"/>
	<path fill="#1E3969" d="M341.136,342.176l-10.083,3.381c-1.16-1.776-3.175-2.956-5.449-2.956c-3.601,0-6.512,2.911-6.512,6.51
		c0,3.597,2.911,6.516,6.512,6.516c3.598,0,6.511-2.919,6.511-6.516c0-0.15-0.028-0.292-0.042-0.437l10.122-3.387
		C341.735,344.298,341.377,343.263,341.136,342.176"/>
	<path fill="#1E3969" d="M366.845,339.033c0,6.171-4.996,11.166-11.164,11.166c-6.158,0-11.165-4.995-11.165-11.166
		c0-6.159,5.007-11.162,11.165-11.162C361.849,327.871,366.845,332.874,366.845,339.033"/>
</g>
<g>
	<path fill="#1E3969" d="M62.178,74.461L79.58,52.217c-2.42-0.605-4.949-0.699-7.342-0.699c-5.547,0-10.068,2.125-13.449,6.313
		c-2.656,3.301-4.087,7.221-5.239,10.369c-0.51,1.39-1.203,3.296-1.596,3.77c-1.546,1.736-3.227,1.662-3.561,1.628
		c-1.951-0.493-3.99,0.574-4.683,2.507c-0.732,2.056,0.336,4.32,2.395,5.055c1.622,0.581,7.269,1.104,11.754-3.926
		c1.377-1.549,2.186-3.76,3.119-6.321c0.4-1.09,0.793-2.129,1.199-3.104V74.461z"/>
	<path fill="#1E3969" d="M87.641,57.61c-1.102-1.555-2.361-2.714-3.723-3.58l-18.43,23.557H83.27v-10.44
		c0.949,3.541,1.648,8.575,2.166,15.469c0.154,2.079,1.885,3.659,3.939,3.659c0.098,0,0.197-0.004,0.299-0.014
		c2.178-0.163,3.809-2.059,3.648-4.237C92.328,68.817,90.736,61.971,87.641,57.61"/>
	<rect x="62.178" y="82.118" fill="#1E3969" width="21.096" height="6.198"/>
	<polygon fill="#1E3969" points="84.707,30.967 84.707,23.712 56.373,23.712 59.773,30.967 	"/>
	<path fill="#1E3969" d="M59.773,37.313c0,6.884,5.582,12.462,12.465,12.462c6.887,0,12.469-5.578,12.469-12.462v-3.924H59.773
		V37.313z"/>
	<path fill="#1E3969" d="M26.093,88.414c0,0.696,0.567,1.259,1.255,1.259h24.076c0.695,0,1.257-0.563,1.257-1.259v-4.513H26.093
		V88.414z"/>
	<path fill="#1E3969" d="M20.054,58.291v24.074c0,0.696,0.562,1.257,1.259,1.257h4.511V57.034h-4.511
		C20.615,57.034,20.054,57.596,20.054,58.291"/>
</g>
<g>
	<path fill="#1E3969" d="M-68.625,70.678l-13.09-5.218l-3.066-2.583c-0.807-0.684-2.006-0.634-2.754,0.11l-4.26,4.24l-4.275-4.24
		c-0.752-0.744-1.945-0.791-2.754-0.11l-3.064,2.583l-13.086,5.218c-4.217,1.681-4.211,16.603-4.574,17.972h55.5
		C-64.412,87.287-64.412,72.353-68.625,70.678"/>
	<path fill="#1E3969" d="M-75.348,38.252c-0.906-7.593-7.939-13.516-16.451-13.516s-15.545,5.923-16.451,13.516
		c-0.754,0.482-1.254,1.327-1.254,2.288v6.165c0,1.503,1.215,2.725,2.719,2.725l2.457-0.011c1.518,7.934,6.906,12.447,12.529,12.447
		s8.893-2.674,11.059-7.601c-1.656,1.298-4.061,2.484-7.422,2.729c-0.309,0.462-0.834,0.764-1.43,0.764h-1.572
		c-0.951,0-1.719-0.771-1.719-1.722c0-0.95,0.768-1.721,1.719-1.721h1.572c0.555,0,1.049,0.264,1.365,0.676
		c5.408-0.435,7.949-3.712,8.963-5.563h2.449c1.506,0,2.723-1.222,2.723-2.725V40.54C-74.092,39.579-74.594,38.734-75.348,38.252
		 M-79.363,38.525c-1.605-5.063-6.236-8.073-12.436-8.073s-10.836,3.011-12.441,8.07c-0.246-0.222-0.537-0.399-0.857-0.522
		c1.031-5.766,6.598-10.183,13.299-10.183S-79.529,32.234-78.5,38C-78.822,38.123-79.115,38.304-79.363,38.525"/>
</g>
<g>
	<path fill-rule="evenodd" clip-rule="evenodd" fill="#1E3969" d="M-76.328,464.152c-1.778,0-3.559,0-5.337,0
		c0-1.22,0-2.434,0-3.648c-6.511-0.304-13.588-0.047-20.316-0.13c0,1.261,0,2.516,0,3.778c-1.78,0-3.559,0-5.339,0
		c0.293-2.269-1.261-8.382,0.91-9.247c1.505-0.595,5.827-0.134,7.946-0.134c5.198,0,9.542,0,15.104,0
		c2.253,0,6.222-0.351,6.904,0.651C-75.438,456.932-76.587,462.291-76.328,464.152z"/>
	<path fill-rule="evenodd" clip-rule="evenodd" fill="#1E3969" d="M-125.16,510.903c0-14.241,0-28.476,0-42.716
		c0.482-0.899,0.874-1.047,1.564-1.169c2.09-0.388,5.163,0,8.072,0c16.559,0,32.64,0,49.227,0c2.356,0,6.915-0.309,7.553,0.649
		c0.47,0.708,0.261,3.542,0.261,5.209c0,11.616,0,21.699,0,33.333c0,1.757,0.239,4.49-0.395,5.209
		c-1.14,1.301-4.525,0.104-6.771,0.524c0.39,3.623-2.471,2.993-6.12,2.993c-2.955,0-5.597,0.486-5.989-1.563
		c-0.089-0.445,0.305-1.093-0.26-1.431c-9.203,0-18.405,0-27.607,0c-0.191,0.932-0.101,2.209-1.044,2.733
		c-0.919,0.514-3.503,0.26-5.209,0.26c-3.1,0-5.289,0.456-5.86-1.431c-0.156-0.517,0.073-1.229-0.387-1.563
		C-120.544,511.664-124.283,512.714-125.16,510.903z M-90.78,475.872c-2.372,0-4.966-0.33-5.728,0.779
		c-0.378,2.403,0.117,5.676-0.264,8.076c-1.581,0-2.854,0-4.297,0c-1.121,0-3.172-0.345-3.907,0.39
		c-0.595,0.594-0.392,2.985-0.392,4.296c0,1.508-0.393,3.646,0.392,4.43c1.387,1.383,6.601-0.349,8.335,0.52
		c0.516,2.223-0.802,6.506,0.261,8.074c0.691,1.02,2.866,0.651,4.687,0.651c1.612,0,4.02,0.29,4.558-0.783
		c0.562-1.119,0.128-2.732,0.128-3.903c0-1.289,0-2.62,0-4.166c1.586,0,2.857,0,4.299,0c1.089,0,3.137,0.379,3.908-0.393
		c0.595-0.6,0.393-2.986,0.393-4.297c0-1.517,0.395-3.642-0.393-4.429c-1.363-1.363-6.304,0.222-8.207-0.39
		c-0.075-2.654,0.168-5.639-0.128-8.076C-87.603,475.786-89.234,475.872-90.78,475.872z"/>
</g>
<g>
	<path fill-rule="evenodd" clip-rule="evenodd" fill="#1E3969" d="M183.435,455.623c3.931-0.651,6.357,2.58,8.234,5.064
		c1.431,1.901,3.42,4.655,3.037,7.604c-0.181,1.421-1.323,2.897-2.28,3.921c-1.043,1.122-2.513,1.817-2.658,3.423
		c-0.129,1.416,0.837,3.141,1.521,4.308c0.766,1.301,1.678,2.53,2.407,3.422c1.738,2.131,3.392,3.772,5.573,5.95
		c2.466,2.471,5.878,5.78,9.501,7.854c1.294,0.744,2.67,1.474,4.178,1.268c2.888-0.394,3.782-4.786,7.856-4.94
		c2.644-0.102,5.931,2.139,7.725,3.549c1.965,1.541,4.489,3.837,4.562,6.711c0.085,3.364-3.154,5.927-5.192,7.854
		c-1.448,1.366-2.234,2.193-4.815,2.406c-3.571,0.298-7.379-0.946-10.389-2.15c-3.14-1.26-6.063-2.967-8.231-4.31
		c-5.455-3.376-9.193-6.481-13.81-11.273c-6.02-6.251-11.717-13.102-14.947-22.677c-1.01-2.983-2.111-7.28-0.886-10.514
		c0.573-1.521,1.791-2.476,3.166-3.923C179.568,457.499,181.116,456.005,183.435,455.623z"/>
</g>
</svg>
